<svg width="918" height="126" viewBox="0 0 918 126" fill="none" xmlns="http://www.w3.org/2000/svg">
<path d="M207.162 0.133052H145.226L129.925 33.3295H207.162C216.276 33.3295 223.66 40.7139 223.66 49.8279C223.66 58.942 216.276 66.3264 207.162 66.3264H129.859L145.16 99.5228H207.095C234.504 99.5228 256.857 77.2366 256.857 49.7614C256.857 22.2862 234.571 0 207.095 0L207.162 0.133052Z" fill="#262626"/>
<path d="M126.998 66.3932H49.7614C40.6474 66.3932 33.263 59.0089 33.263 49.8948C33.263 40.7808 40.6474 33.3964 49.7614 33.3964H126.998L111.697 0.199917H49.7614C22.2862 0.133391 0 22.4196 0 49.8948C0 77.37 22.2862 99.6562 49.7614 99.6562H111.697L126.998 66.4598V66.3932Z" fill="#262626"/>
<path d="M330.151 0H365.277L387.629 75.1078H385.833L407.388 0H442.38V97.8597H420.294V21.9536L420.826 23.6167L398.739 97.8597H374.856L351.772 23.6167L352.171 21.9536V97.9262H330.218V0H330.151Z" fill="#262626"/>
<path d="M458.147 0H482.03V19.4256H458.147V0ZM458.812 27.4087H481.298V97.8597H458.812V27.4087Z" fill="#262626"/>
<path d="M508.108 94.4669C503.384 91.2736 499.792 86.8829 497.198 81.2947C494.603 75.7731 493.339 69.5862 493.339 62.734C493.339 55.8818 494.603 49.5618 497.198 43.9737C499.792 38.3855 503.384 33.9948 508.108 30.735C512.831 27.5417 518.353 25.8786 524.673 25.8786C528.93 25.8786 532.855 26.8765 536.248 28.8057C539.708 30.735 542.369 33.1299 544.231 35.791V0H566.717V97.8597H544.231V89.4774C542.369 92.2715 539.708 94.5999 536.182 96.4626C532.656 98.3254 528.864 99.2567 524.673 99.2567C518.353 99.2567 512.831 97.6601 508.108 94.4669ZM537.712 79.8977C539.774 78.301 541.371 76.0392 542.568 73.0455C543.699 70.0518 544.298 66.5925 544.298 62.6674C544.298 58.7424 543.699 55.2831 542.568 52.2894C541.371 49.2957 539.774 47.0339 537.712 45.4372C535.649 43.8406 533.321 43.0423 530.727 43.0423H529.729C526.935 43.0423 524.54 43.8406 522.477 45.4372C520.415 47.0339 518.818 49.2957 517.621 52.2894C516.424 55.2831 515.891 58.7424 515.891 62.6674C515.891 68.6548 517.155 73.3781 519.683 76.904C522.211 80.4299 525.538 82.2261 529.729 82.2261H530.727C533.321 82.2261 535.649 81.4278 537.712 79.8311V79.8977Z" fill="#262626"/>
<path d="M580.887 27.4081H603.373V35.7904C605.236 32.9963 607.897 30.6679 611.423 28.8051C614.949 26.9424 618.807 26.011 623.131 26.011C629.451 26.011 634.973 27.6077 639.696 30.8674C644.42 34.0607 648.012 38.5179 650.54 44.1061C653.068 49.6943 654.332 55.8812 654.332 62.6003C654.332 69.3194 653.068 75.7725 650.54 81.3606C648.012 86.9488 644.42 91.3395 639.696 94.5993C634.973 97.7925 629.385 99.3892 622.998 99.3892C618.807 99.3892 614.949 98.4578 611.556 96.5286C608.097 94.5993 605.369 92.2709 603.44 89.4768V126H580.954V27.4081H580.887ZM625.26 79.8971C627.323 78.3004 628.919 76.0386 630.117 73.1114C631.314 70.1843 631.846 66.6584 631.846 62.5338C631.846 56.746 630.582 52.0892 628.054 48.4968C625.526 44.9044 622.2 43.1082 618.142 43.1082H617.144C614.55 43.1082 612.155 43.9065 610.092 45.5697C607.964 47.2328 606.367 49.4947 605.169 52.4219C603.972 55.349 603.44 58.8083 603.44 62.6668C603.44 66.5254 604.038 70.0512 605.169 73.0449C606.3 76.0386 607.964 78.3004 610.092 79.8971C612.155 81.4937 614.55 82.292 617.144 82.292H618.142C620.87 82.292 623.198 81.4937 625.26 79.8971Z" fill="#262626"/>
<path d="M680.942 94.5327C675.354 91.3395 671.03 87.0153 668.036 81.4936C664.976 75.972 663.513 69.652 663.513 62.6668C663.513 55.6816 665.043 49.5612 668.036 43.973C671.096 38.4513 675.354 34.0606 680.942 30.8009C686.53 27.5411 693.117 25.9445 700.634 25.9445C708.151 25.9445 714.604 27.5411 720.193 30.8009C725.781 34.0606 730.105 38.3848 733.099 43.973C736.092 49.5612 737.622 55.7481 737.622 62.6668C737.622 69.5855 736.092 75.9054 733.099 81.4936C730.105 87.0818 725.781 91.406 720.193 94.5327C714.604 97.726 708.085 99.2561 700.634 99.2561C693.183 99.2561 686.53 97.6594 680.942 94.5327ZM708.551 79.9635C710.679 78.4334 712.276 76.1716 713.407 73.2444C714.538 70.3173 715.07 66.8579 715.07 62.7998C715.07 58.7418 714.538 55.1494 713.407 52.2222C712.276 49.2951 710.679 47.0332 708.551 45.4366C706.422 43.8399 703.96 43.0416 701.1 43.0416H700.235C697.241 43.0416 694.713 43.8399 692.584 45.4366C690.455 47.0332 688.859 49.2951 687.728 52.2222C686.597 55.1494 686.065 58.6752 686.065 62.7998C686.065 66.9244 686.597 70.1842 687.728 73.1779C688.859 76.1716 690.455 78.4334 692.584 79.9635C694.713 81.4936 697.241 82.2919 700.235 82.2919H701.1C703.96 82.2919 706.488 81.4936 708.551 79.9635Z" fill="#262626"/>
<path d="M748.599 0H772.482V19.4256H748.599V0ZM749.264 27.4087H771.75V97.8597H749.264V27.4087Z" fill="#262626"/>
<path d="M786.652 27.4081H809.138V37.0544C811.267 33.595 814.194 30.934 817.919 28.9382C821.645 27.0089 825.636 26.011 829.96 26.011C835.282 26.011 839.74 27.0755 843.399 29.2043C847.058 31.3331 849.719 34.3933 851.515 38.4514C853.311 42.443 854.176 47.0998 854.176 52.4219V97.8591H831.491V55.482C831.491 52.8875 831.158 50.6922 830.426 48.896C829.694 47.0998 828.696 45.7693 827.366 44.9044C826.035 44.0396 824.372 43.5739 822.376 43.5739H821.379C819.117 43.5739 817.054 44.2392 815.125 45.5032C813.196 46.7671 811.732 48.6299 810.668 50.8918C809.603 53.1536 809.071 55.6816 809.071 58.3427V97.7926H786.586V27.4081H786.652Z" fill="#262626"/>
<path d="M881.585 92.7376C878.258 89.2782 876.529 84.2222 876.529 77.6362V44.5062H862.558V27.4756H876.529V5.32245H898.615V27.4091H914.116V44.4397H898.615V72.5802C898.615 75.1747 899.081 76.9709 900.079 77.9688C901.077 78.9667 902.873 79.4324 905.467 79.4324H917.043V97.8601H896.886C889.967 97.8601 884.844 96.1304 881.518 92.671L881.585 92.7376Z" fill="#262626"/>
</svg>
